<?xml version="1.0" encoding="UTF-8" standalone="no"?>
<!-- Created with Inkscape (http://www.inkscape.org/) -->

<svg
   xmlns:dc="http://purl.org/dc/elements/1.1/"
   xmlns:cc="http://creativecommons.org/ns#"
   xmlns:rdf="http://www.w3.org/1999/02/22-rdf-syntax-ns#"
   xmlns:svg="http://www.w3.org/2000/svg"
   xmlns="http://www.w3.org/2000/svg"
   xmlns:sodipodi="http://sodipodi.sourceforge.net/DTD/sodipodi-0.dtd"
   xmlns:inkscape="http://www.inkscape.org/namespaces/inkscape"
   width="507mm"
   height="507mm"
   viewBox="0 0 507 507"
   version="1.1"
   id="svg4563"
   inkscape:version="0.92.3 (2405546, 2018-03-11)"
   sodipodi:docname="Dialer.svg">
  <defs
     id="defs4557" />
  <sodipodi:namedview
     id="base"
     pagecolor="#ffffff"
     bordercolor="#666666"
     borderopacity="1.0"
     inkscape:pageopacity="0.0"
     inkscape:pageshadow="2"
     inkscape:zoom="0.39113453"
     inkscape:cx="912.81976"
     inkscape:cy="795.64039"
     inkscape:document-units="mm"
     inkscape:current-layer="layer11"
     showgrid="false"
     inkscape:snap-object-midpoints="true"
     inkscape:measure-start="958.11,956.22"
     inkscape:measure-end="958.11,1912.44"
     inkscape:snap-page="true"
     inkscape:snap-midpoints="false"
     inkscape:snap-smooth-nodes="true"
     inkscape:window-width="1920"
     inkscape:window-height="1013"
     inkscape:window-x="-9"
     inkscape:window-y="-9"
     inkscape:window-maximized="1"
     inkscape:object-nodes="true"
     inkscape:snap-others="true"
     inkscape:snap-nodes="true"
     inkscape:snap-global="true"
     inkscape:snap-intersection-paths="true" />
  <metadata
     id="metadata4560">
    <rdf:RDF>
      <cc:Work
         rdf:about="">
        <dc:format>image/svg+xml</dc:format>
        <dc:type
           rdf:resource="http://purl.org/dc/dcmitype/StillImage" />
        <dc:title />
      </cc:Work>
    </rdf:RDF>
  </metadata>
  <g
     inkscape:groupmode="layer"
     id="layer11"
     inkscape:label="back"
     style="display:inline">
    <circle
       style="display:inline;fill:#000000;fill-opacity:1;stroke:none;stroke-width:0.26458332"
       id="path5017"
       cx="253.50003"
       cy="254.0002"
       r="116"
       inkscape:label="knob" />
    <text
       xml:space="preserve"
       style="font-style:normal;font-weight:normal;font-size:10.58333302px;line-height:1.25;font-family:sans-serif;letter-spacing:0px;word-spacing:0px;fill:#ffffff;fill-opacity:1;stroke:none;stroke-width:0.26458332"
       x="330.3512"
       y="98.785713"
       id="text5107"
       inkscape:label="1"><tspan
         sodipodi:role="line"
         id="tspan5105"
         x="330.3512"
         y="98.785713"
         style="font-style:normal;font-variant:normal;font-weight:normal;font-stretch:normal;font-size:62.08889008px;font-family:'Helvetica World';-inkscape-font-specification:'Helvetica World';fill:#000000;stroke-width:0.26458332">1</tspan></text>
    <text
       xml:space="preserve"
       style="font-style:normal;font-weight:normal;font-size:10.58333302px;line-height:1.25;font-family:sans-serif;letter-spacing:0px;word-spacing:0px;fill:#ffffff;fill-opacity:1;stroke:none;stroke-width:0.26458332"
       x="236.48938"
       y="74.337723"
       id="text5107-3"
       inkscape:label="2"><tspan
         sodipodi:role="line"
         id="tspan5105-8"
         x="236.48938"
         y="74.337723"
         style="font-style:normal;font-variant:normal;font-weight:normal;font-stretch:normal;font-size:62.08889008px;font-family:'Helvetica World';-inkscape-font-specification:'Helvetica World';fill:#000000;stroke-width:0.26458332">2</tspan></text>
    <text
       xml:space="preserve"
       style="font-style:normal;font-weight:normal;font-size:10.58333302px;line-height:1.25;font-family:sans-serif;letter-spacing:0px;word-spacing:0px;fill:#ffffff;fill-opacity:1;stroke:none;stroke-width:0.26458332"
       x="142.81955"
       y="98.679382"
       id="text5107-3-6"
       inkscape:label="3"><tspan
         sodipodi:role="line"
         x="142.81955"
         y="98.679382"
         style="font-style:normal;font-variant:normal;font-weight:normal;font-stretch:normal;font-size:62.08889008px;font-family:'Helvetica World';-inkscape-font-specification:'Helvetica World';fill:#000000;stroke-width:0.26458332"
         id="tspan4567">3</tspan></text>
    <text
       xml:space="preserve"
       style="font-style:normal;font-weight:normal;font-size:10.58333302px;line-height:1.25;font-family:sans-serif;letter-spacing:0px;word-spacing:0px;fill:#ffffff;fill-opacity:1;stroke:none;stroke-width:0.26458332"
       x="67.506538"
       y="163.24847"
       id="text5107-3-6-6"
       inkscape:label="4"><tspan
         sodipodi:role="line"
         x="67.506538"
         y="163.24847"
         style="font-style:normal;font-variant:normal;font-weight:normal;font-stretch:normal;font-size:62.08889008px;font-family:'Helvetica World';-inkscape-font-specification:'Helvetica World';fill:#000000;stroke-width:0.26458332"
         id="tspan4567-3">4</tspan></text>
    <text
       xml:space="preserve"
       style="font-style:normal;font-weight:normal;font-size:10.58333302px;line-height:1.25;font-family:sans-serif;letter-spacing:0px;word-spacing:0px;fill:#ffffff;fill-opacity:1;stroke:none;stroke-width:0.26458332"
       x="36.198826"
       y="253.64961"
       id="text5107-3-6-6-3"
       inkscape:label="5"><tspan
         sodipodi:role="line"
         x="36.198826"
         y="253.64961"
         style="font-style:normal;font-variant:normal;font-weight:normal;font-stretch:normal;font-size:62.08889008px;font-family:'Helvetica World';-inkscape-font-specification:'Helvetica World';fill:#000000;stroke-width:0.26458332"
         id="tspan4607">5</tspan></text>
    <text
       xml:space="preserve"
       style="font-style:normal;font-weight:normal;font-size:10.58333302px;line-height:1.25;font-family:sans-serif;letter-spacing:0px;word-spacing:0px;fill:#ffffff;fill-opacity:1;stroke:none;stroke-width:0.26458332"
       x="48.354828"
       y="349.39825"
       id="text5107-3-6-6-3-6"
       inkscape:label="6"><tspan
         sodipodi:role="line"
         x="48.354828"
         y="349.39825"
         style="font-style:normal;font-variant:normal;font-weight:normal;font-stretch:normal;font-size:62.08889008px;font-family:'Helvetica World';-inkscape-font-specification:'Helvetica World';fill:#000000;stroke-width:0.26458332"
         id="tspan4607-4">6</tspan></text>
    <text
       xml:space="preserve"
       style="font-style:normal;font-weight:normal;font-size:10.58333302px;line-height:1.25;font-family:sans-serif;letter-spacing:0px;word-spacing:0px;fill:#ffffff;fill-opacity:1;stroke:none;stroke-width:0.26458332"
       x="104.94458"
       y="431.06158"
       id="text5107-3-6-6-3-6-9"
       inkscape:label="7"><tspan
         sodipodi:role="line"
         x="104.94458"
         y="431.06158"
         style="font-style:normal;font-variant:normal;font-weight:normal;font-stretch:normal;font-size:62.08889008px;font-family:'Helvetica World';-inkscape-font-specification:'Helvetica World';fill:#000000;stroke-width:0.26458332"
         id="tspan4647">7</tspan></text>
    <text
       xml:space="preserve"
       style="font-style:normal;font-weight:normal;font-size:10.58333302px;line-height:1.25;font-family:sans-serif;letter-spacing:0px;word-spacing:0px;fill:#ffffff;fill-opacity:1;stroke:none;stroke-width:0.26458332"
       x="191.34265"
       y="471.53546"
       id="text5107-3-6-6-3-6-9-3"
       inkscape:label="8"><tspan
         sodipodi:role="line"
         x="191.34265"
         y="471.53546"
         style="font-style:normal;font-variant:normal;font-weight:normal;font-stretch:normal;font-size:62.08889008px;font-family:'Helvetica World';-inkscape-font-specification:'Helvetica World';fill:#000000;stroke-width:0.26458332"
         id="tspan4647-5">8</tspan></text>
    <text
       xml:space="preserve"
       style="font-style:normal;font-weight:normal;font-size:10.58333302px;line-height:1.25;font-family:sans-serif;letter-spacing:0px;word-spacing:0px;fill:#ffffff;fill-opacity:1;stroke:none;stroke-width:0.26458332"
       x="288.14395"
       y="470.04074"
       id="text5107-3-6-6-3-6-9-3-1"
       inkscape:label="9"><tspan
         sodipodi:role="line"
         x="288.14395"
         y="470.04074"
         style="font-style:normal;font-variant:normal;font-weight:normal;font-stretch:normal;font-size:62.08889008px;font-family:'Helvetica World';-inkscape-font-specification:'Helvetica World';fill:#000000;stroke-width:0.26458332"
         id="tspan4647-5-4">9</tspan></text>
    <text
       xml:space="preserve"
       style="font-style:normal;font-weight:normal;font-size:10.58333302px;line-height:1.25;font-family:sans-serif;letter-spacing:0px;word-spacing:0px;fill:#ffffff;fill-opacity:1;stroke:none;stroke-width:0.26458332"
       x="371.93604"
       y="422.58508"
       id="text5107-3-6-6-3-6-9-3-1-4"
       inkscape:label="0"><tspan
         sodipodi:role="line"
         x="371.93604"
         y="422.58508"
         style="font-style:normal;font-variant:normal;font-weight:normal;font-stretch:normal;font-size:62.08889008px;font-family:'Helvetica World';-inkscape-font-specification:'Helvetica World';fill:#000000;stroke-width:0.26458332"
         id="tspan4647-5-4-9">0</tspan></text>
  </g>
  <path
     style="display:inline;fill:#000000;fill-opacity:1;stroke:none;stroke-width:0.26458332"
     d="M 253.49977,1.0003953 A 252.99999,252.99999 0 0 0 0.50022786,253.99994 252.99999,252.99999 0 0 0 253.49977,507 252.99999,252.99999 0 0 0 506.49983,253.99994 252.99999,252.99999 0 0 0 253.49977,1.0003953 Z m -0.0439,18.5001627 A 34.999998,34.999998 0 0 1 288.38757,54.568184 34.999998,34.999998 0 0 1 253.31994,89.50042 34.999998,34.999998 0 0 1 218.3877,54.432791 34.999998,34.999998 0 0 1 253.45584,19.500558 Z m -93.13281,23.051306 a 34.999998,34.999998 0 0 1 30.43483,18.684648 34.999998,34.999998 0 0 1 -14.65492,47.277738 34.999998,34.999998 0 0 1 -47.27825,-14.654923 34.999998,34.999998 0 0 1 14.65492,-47.278253 34.999998,34.999998 0 0 1 16.84342,-4.02921 z m 187.19736,0.364319 a 34.999998,34.999998 0 0 1 15.80523,4.091222 34.999998,34.999998 0 0 1 14.47199,47.334577 34.999998,34.999998 0 0 1 -47.33459,14.471988 34.999998,34.999998 0 0 1 -14.47197,-47.334579 34.999998,34.999998 0 0 1 31.52934,-18.563208 z M 88.841087,106.7128 a 34.999998,34.999998 0 0 1 18.745113,6.08387 34.999998,34.999998 0 0 1 9.16171,48.64251 34.999998,34.999998 0 0 1 -48.641991,9.16171 34.999998,34.999998 0 0 1 -9.161714,-48.6425 34.999998,34.999998 0 0 1 29.896882,-15.24559 z m 164.658683,0.28733 A 147,147 0 0 1 400.5001,253.99994 147,147 0 0 1 253.49977,401.00027 147,147 0 0 1 106.49996,253.99994 147,147 0 0 1 253.49977,107.00013 Z M 55.722181,197.08248 a 34.999998,34.999998 0 0 1 2.470131,0.19069 34.999998,34.999998 0 0 1 30.850313,38.7072 A 34.999998,34.999998 0 0 1 50.335428,266.8312 34.999998,34.999998 0 0 1 19.485115,228.124 34.999998,34.999998 0 0 1 55.722181,197.08248 Z m 12.023555,95.5492 a 34.999998,34.999998 0 0 1 31.676618,22.19245 34.999998,34.999998 0 0 1 -19.780705,45.37295 34.999998,34.999998 0 0 1 -45.373456,-19.78123 34.999998,34.999998 0 0 1 19.78122,-45.37295 34.999998,34.999998 0 0 1 13.696323,-2.41122 z m 323.385944,73.1821 a 34.999998,34.999998 0 0 1 23.86521,11.08718 34.999998,34.999998 0 0 1 -1.72704,49.46727 34.999998,34.999998 0 0 1 -49.46777,-1.72754 34.999998,34.999998 0 0 1 1.72754,-49.46727 34.999998,34.999998 0 0 1 25.60206,-9.35964 z m -267.09946,5.41568 a 34.999998,34.999998 0 0 1 21.44417,8.42534 34.999998,34.999998 0 0 1 3.74034,49.35617 34.999998,34.999998 0 0 1 -49.35616,3.7398 34.999998,34.999998 0 0 1 -3.739822,-49.35614 34.999998,34.999998 0 0 1 27.911472,-12.16517 z m 182.37491,41.37837 a 34.999998,34.999998 0 0 1 32.52102,25.85268 34.999998,34.999998 0 0 1 -24.66568,42.91367 34.999998,34.999998 0 0 1 -42.91366,-24.66517 34.999998,34.999998 0 0 1 24.66517,-42.91418 34.999998,34.999998 0 0 1 10.39315,-1.187 z m -99.3128,1.97919 a 34.999998,34.999998 0 0 1 9.41235,0.82683 34.999998,34.999998 0 0 1 26.3927,41.87446 34.999998,34.999998 0 0 1 -41.87444,26.39219 34.999998,34.999998 0 0 1 -26.39219,-41.87447 34.999998,34.999998 0 0 1 32.46158,-27.21901 z"
     id="path4933"
     inkscape:connector-curvature="0"
     inkscape:label="disk" />
  <g
     inkscape:groupmode="layer"
     id="layer10"
     inkscape:label="fore"
     style="display:inline">
    <path
       style="display:inline;fill:none;fill-opacity:1;stroke:#ffffff;stroke-width:22.67716599;stroke-linecap:round;stroke-linejoin:round;stroke-miterlimit:4;stroke-dasharray:none;stroke-opacity:1;paint-order:fill markers stroke"
       d="m 1839.3571,1331.161 -198.6169,-109.9051 c -7.1493,-3.9564 -15.0825,-5.8544 -22.9785,-5.711 -7.896,0.1435 -15.7549,2.3296 -22.7558,6.543 -14.0019,8.4267 -22.4455,23.6822 -22.1485,40.0215 0.2968,16.3393 9.2873,31.2788 23.586,39.1914 l 203.5035,112.6083"
       id="path5045-7"
       inkscape:connector-curvature="0"
       sodipodi:nodetypes="ccccccc"
       inkscape:label="pin_outline"
       transform="scale(0.26458333)" />
    <path
       id="path5045"
       style="display:inline;fill:#000000;fill-opacity:1;stroke:none;stroke-width:1.57500005;stroke-linecap:butt;stroke-linejoin:miter;stroke-miterlimit:4;stroke-dasharray:none;stroke-opacity:1"
       d="m 487.41995,352.62341 -53.30765,-29.49936 -11.71977,21.17853 53.30767,29.49935 11.71975,-21.17852 m -65.02743,-8.32081 c -3.78318,-2.09354 -6.1621,-6.04635 -6.24062,-10.36945 -0.0786,-4.3231 2.15523,-8.3597 5.85989,-10.58927 3.70464,-2.22956 8.31732,-2.31336 12.1005,-0.21981 m 41.58791,50.67789 c 3.78317,2.09354 8.39586,2.00974 12.1005,-0.21983 3.70465,-2.22956 5.93842,-6.26616 5.85989,-10.58927 -0.0786,-4.3231 -2.45745,-8.27591 -6.24064,-10.36944"
       inkscape:connector-curvature="0"
       sodipodi:nodetypes="cccccccscccsc"
       inkscape:label="pin" />
  </g>
</svg>
